<?xml version="1.0" encoding="UTF-8" standalone="no"?>
<!-- Created with Inkscape (http://www.inkscape.org/) -->

<svg
   width="64pt"
   height="64pt"
   viewBox="0 0 22.577778 22.577778"
   version="1.1"
   id="svg831"
   inkscape:version="1.1.2 (0a00cf5339, 2022-02-04)"
   sodipodi:docname="30 - Healthy Care.svg"
   inkscape:export-filename="/media/taufikramadhan/Data/Tr Design Studio/Project Design/TR Creative Design/Icon Design/Project Hiring/Icon Icons/025 - Healthcare And Medical/5 - Send/4 - Filledline/30 - Healthy Care.png"
   inkscape:export-xdpi="576"
   inkscape:export-ydpi="576"
   xmlns:inkscape="http://www.inkscape.org/namespaces/inkscape"
   xmlns:sodipodi="http://sodipodi.sourceforge.net/DTD/sodipodi-0.dtd"
   xmlns="http://www.w3.org/2000/svg"
   xmlns:svg="http://www.w3.org/2000/svg"
   xmlns:rdf="http://www.w3.org/1999/02/22-rdf-syntax-ns#"
   xmlns:cc="http://creativecommons.org/ns#"
   xmlns:dc="http://purl.org/dc/elements/1.1/">
  <defs
     id="defs825">
    <pattern
       id="EMFhbasepattern"
       patternUnits="userSpaceOnUse"
       width="6"
       height="6"
       x="0"
       y="0" />
    <pattern
       id="EMFhbasepattern-9"
       patternUnits="userSpaceOnUse"
       width="6"
       height="6"
       x="0"
       y="0" />
    <pattern
       id="EMFhbasepattern-0"
       patternUnits="userSpaceOnUse"
       width="6"
       height="6"
       x="0"
       y="0" />
    <pattern
       id="EMFhbasepattern-7"
       patternUnits="userSpaceOnUse"
       width="6"
       height="6"
       x="0"
       y="0" />
    <pattern
       id="EMFhbasepattern-2"
       patternUnits="userSpaceOnUse"
       width="6"
       height="6"
       x="0"
       y="0" />
    <pattern
       id="EMFhbasepattern-98"
       patternUnits="userSpaceOnUse"
       width="6"
       height="6"
       x="0"
       y="0" />
    <pattern
       id="EMFhbasepattern-6"
       patternUnits="userSpaceOnUse"
       width="6"
       height="6"
       x="0"
       y="0" />
    <pattern
       id="EMFhbasepattern-01"
       patternUnits="userSpaceOnUse"
       width="6"
       height="6"
       x="0"
       y="0" />
    <pattern
       id="EMFhbasepattern-07"
       patternUnits="userSpaceOnUse"
       width="6"
       height="6"
       x="0"
       y="0" />
    <pattern
       id="EMFhbasepattern-8"
       patternUnits="userSpaceOnUse"
       width="6"
       height="6"
       x="0"
       y="0" />
    <pattern
       id="EMFhbasepattern-4"
       patternUnits="userSpaceOnUse"
       width="6"
       height="6"
       x="0"
       y="0" />
    <pattern
       id="EMFhbasepattern-40"
       patternUnits="userSpaceOnUse"
       width="6"
       height="6"
       x="0"
       y="0" />
    <pattern
       id="EMFhbasepattern-08"
       patternUnits="userSpaceOnUse"
       width="6"
       height="6"
       x="0"
       y="0" />
    <pattern
       id="EMFhbasepattern-04"
       patternUnits="userSpaceOnUse"
       width="6"
       height="6"
       x="0"
       y="0" />
    <pattern
       id="EMFhbasepattern-014"
       patternUnits="userSpaceOnUse"
       width="6"
       height="6"
       x="0"
       y="0" />
    <pattern
       id="EMFhbasepattern-27"
       patternUnits="userSpaceOnUse"
       width="6"
       height="6"
       x="0"
       y="0" />
    <pattern
       id="EMFhbasepattern-09"
       patternUnits="userSpaceOnUse"
       width="6"
       height="6"
       x="0"
       y="0" />
    <pattern
       id="EMFhbasepattern-5"
       patternUnits="userSpaceOnUse"
       width="6"
       height="6"
       x="0"
       y="0" />
    <pattern
       id="EMFhbasepattern-018"
       patternUnits="userSpaceOnUse"
       width="6"
       height="6"
       x="0"
       y="0" />
  </defs>
  <sodipodi:namedview
     id="base"
     pagecolor="#ffffff"
     bordercolor="#666666"
     borderopacity="1.0"
     inkscape:pageopacity="0.0"
     inkscape:pageshadow="2"
     inkscape:zoom="4.6828782"
     inkscape:cx="43.349408"
     inkscape:cy="42.602005"
     inkscape:document-units="pt"
     inkscape:current-layer="layer1"
     showgrid="false"
     units="pt"
     inkscape:window-width="1366"
     inkscape:window-height="719"
     inkscape:window-x="0"
     inkscape:window-y="26"
     inkscape:window-maximized="1"
     inkscape:pagecheckerboard="true"
     inkscape:showpageshadow="false"
     inkscape:object-paths="true"
     inkscape:snap-intersection-paths="true"
     inkscape:snap-smooth-nodes="true"
     inkscape:snap-midpoints="true"
     showguides="true"
     inkscape:snap-bbox="true"
     inkscape:bbox-nodes="true"
     inkscape:snap-nodes="false"
     inkscape:snap-global="true"
     inkscape:snap-others="false">
    <inkscape:grid
       type="xygrid"
       id="grid1378" />
    <sodipodi:guide
       position="0.97013831,21.607643"
       orientation="78.000048,0"
       id="guide1380"
       inkscape:locked="false" />
    <sodipodi:guide
       position="0.97013831,0.97013129"
       orientation="0,78.000005"
       id="guide1382"
       inkscape:locked="false" />
    <sodipodi:guide
       position="21.607639,0.97013129"
       orientation="-78.000048,0"
       id="guide1384"
       inkscape:locked="false" />
    <sodipodi:guide
       position="21.607639,21.607643"
       orientation="0,-78.000005"
       id="guide1386"
       inkscape:locked="false" />
  </sodipodi:namedview>
  <metadata
     id="metadata828">
    <rdf:RDF>
      <cc:Work
         rdf:about="">
        <dc:format>image/svg+xml</dc:format>
        <dc:type
           rdf:resource="http://purl.org/dc/dcmitype/StillImage" />
      </cc:Work>
    </rdf:RDF>
  </metadata>
  <g
     inkscape:label="Icon"
     inkscape:groupmode="layer"
     id="layer1"
     transform="translate(0,-274.42223)">
    <g
       id="g3820"
       style="display:inline;stroke-width:0.795643"
       transform="matrix(1.2568451,0,0,1.2568451,-114.36465,-191.94334)">
      <g
         id="g72791"
         style="display:inline;stroke-width:0.795643">
        <path
           style="color:#000000;fill:#ff7247;fill-opacity:1;stroke-width:0.795643;stroke-linecap:round;stroke-linejoin:round;stroke-miterlimit:1.5;-inkscape-stroke:none"
           d="m 95.31841,377.1111 c -0.314389,-0.0833 -0.575605,-0.0759 -0.871144,-0.0779 -0.146936,-5.6e-4 -0.266193,0.11869 -0.265625,0.26563 v 2.6582 c -1.77e-4,0.0466 0.01195,0.0924 0.03516,0.13281 l 0.654297,1.13086 c 0.07572,0.13119 0.245917,0.17216 0.373047,0.0898 l 0.421875,-0.27539 c 0.06455,-0.0424 0.107361,-0.11089 0.117187,-0.1875 l 0.333031,-2.629 c 0.05113,-0.51874 -0.293323,-0.99407 -0.797828,-1.10751 z"
           id="path290904"
           sodipodi:nodetypes="ccccccccccc" />
        <path
           style="color:#000000;fill:#ff7247;fill-opacity:1;stroke-width:0.795643;stroke-linecap:round;stroke-linejoin:round;stroke-miterlimit:1.5;-inkscape-stroke:none"
           d="m 104.6323,377.1111 c 0.31439,-0.0833 0.5756,-0.0759 0.87114,-0.0779 0.14694,-5.6e-4 0.2662,0.11869 0.26563,0.26563 v 2.6582 c 1.8e-4,0.0466 -0.0119,0.0924 -0.0352,0.13281 l -0.6543,1.13086 c -0.0757,0.13119 -0.24592,0.17216 -0.37305,0.0898 l -0.42187,-0.27539 c -0.0645,-0.0424 -0.10736,-0.11089 -0.11719,-0.1875 l -0.33303,-2.629 c -0.0511,-0.51874 0.29332,-0.99407 0.79783,-1.10751 z"
           id="path14892"
           sodipodi:nodetypes="ccccccccccc" />
        <path
           style="color:#000000;fill:#f0517a;stroke-width:3.00716;stroke-linecap:round;stroke-linejoin:round;stroke-miterlimit:1.5;-inkscape-stroke:none"
           d="m 386.00596,384.66024 c 2.24047,-2.41168 3.8457,-5.45947 3.8457,-8.82813 0,-4.30802 -3.33568,-7.87691 -7.5,-7.87695 l -10e-5,-8e-5 v 0.002 c -1.73257,0 -3.33673,0.62222 -4.60547,1.6543 -1.26751,-1.03021 -2.86986,-1.6543 -4.59961,-1.6543 -4.1643,0 -7.50586,3.5689 -7.50586,7.87695 0,3.37561 1.61937,6.42767 3.86719,8.8418 2.24783,2.41417 5.13556,4.2293 7.91407,5.1836 0.22203,0.0748 0.46327,0.0693 0.68364,-0.0156 2.77549,-0.95951 5.66001,-2.77192 7.90044,-5.18359 z"
           transform="matrix(0.26458334,0,0,0.26458334,0,280.06666)"
           id="path290818"
           sodipodi:nodetypes="ssscccsssccs" />
        <path
           style="color:#000000;fill:#c8dae5;stroke-width:3.00716;stroke-linecap:round;stroke-linejoin:round;stroke-miterlimit:1.5;-inkscape-stroke:none"
           d="m 377.76758,373.60352 c -2.85525,0.0151 -5.19637,2.35138 -5.21094,5.20507 -0.008,1.83665 0.96384,3.52355 2.51367,4.44532 l -0.004,0.75195 a 1.0000987,1.0000987 0 0 0 1.0039,1.00976 l 3.35157,-0.0137 a 1.0000987,1.0000987 0 0 0 0.99609,-0.99804 l 0.01,-0.79688 c 1.53312,-0.93562 2.50472,-2.60477 2.51563,-4.42773 0.0151,-2.85343 -2.32077,-5.19034 -5.17578,-5.17578 z"
           transform="matrix(0.26458334,0,0,0.26458334,0,280.06666)"
           id="path290836" />
        <path
           style="color:#000000;fill:#c8dae5;stroke-width:0.795643;stroke-linecap:round;stroke-linejoin:round;stroke-miterlimit:1.5;-inkscape-stroke:none"
           d="m 100.32999,376.11914 h 1.11719 c 0.22869,0 0.41796,-0.19291 0.41796,-0.41992 v -0.75 c 0,-0.22699 -0.18922,-0.41797 -0.41796,-0.41797 h -1.1171 z"
           id="path290848"
           sodipodi:nodetypes="csssscc" />
        <path
           style="color:#000000;fill:#ff7247;stroke-width:0.795643;stroke-linecap:round;stroke-linejoin:round;stroke-miterlimit:1.5;-inkscape-stroke:none"
           d="m 93.998047,376.02734 -0.501953,0.86133 c -0.01737,0.0301 -0.02865,0.0633 -0.0332,0.0977 l -0.279297,2.10547 c -0.01008,0.0726 0.01043,0.14619 0.05664,0.20312 l 0.773438,0.94141 c 0.0731,0.0892 0.195587,0.12084 0.302734,0.0781 l 0.300781,-0.12109 c 0.08639,-0.035 0.14797,-0.11294 0.16211,-0.20508 l 0.439453,-2.80664 c 9.07e-4,-0.006 0.0016,-0.013 0.002,-0.0195 0.03396,-0.41585 -0.171532,-0.81669 -0.529297,-1.03125 l -0.328125,-0.19727 c -0.06101,-0.0367 -0.134232,-0.0473 -0.20315,-0.0293 -0.0683,0.0177 -0.126661,0.062 -0.162134,0.12302 z"
           id="path290910"
           sodipodi:nodetypes="ccccccccccccccc" />
        <path
           style="color:#000000;fill:#ffa185;stroke-width:0.795643;stroke-linecap:round;stroke-linejoin:round;stroke-miterlimit:1.5;-inkscape-stroke:none"
           d="m 93.375,376.56055 c -0.127534,-0.0612 -0.28069,-0.0113 -0.347656,0.11328 l -1.10351,2.08417 c -0.175359,0.36139 -0.201596,0.74898 -0.09666,1.08986 l 0.821304,2.28127 c 0.134751,0.37414 0.375312,0.70088 0.69336,0.93945 l 0.386719,0.29101 c 0.102134,0.0766 0.168114,0.18794 0.18164,0.30469 l 0.06055,0.5293 c 0.01861,0.16162 0.17728,0.26833 0.333984,0.22461 l 3.15625,-0.87695 c 0.136775,-0.0385 0.218691,-0.17823 0.185547,-0.31641 l -0.199219,-0.81057 c -0.183396,-0.46765 -0.487331,-0.85745 -0.88086,-1.13869 l -0.791015,-0.56641 -0.533204,-0.69336 c -0.121327,-0.158 -0.298502,-0.26923 -0.511718,-0.31445 -0.123462,-0.0262 -0.258908,0.0562 -0.394532,0.0957 l -0.58598,-0.71893 0.451172,-1.14257 c 0.108892,-0.22317 0.154206,-0.45416 0.08789,-0.66993 -0.06632,-0.21576 -0.237647,-0.3757 -0.445309,-0.47951 z"
           id="path290898"
           sodipodi:nodetypes="ccccccccccccccccscccscc" />
        <path
           style="color:#000000;fill:#4f697d;stroke-width:0.795643;stroke-linecap:round;stroke-linejoin:round;stroke-miterlimit:1.5;-inkscape-stroke:none"
           d="m 97.652344,383.01172 c -0.130891,-0.0417 -0.273561,-0.0216 -0.390625,0.043 -0.242894,0.13393 -0.73415,0.36621 -1.539063,0.58203 -0.805712,0.21603 -1.347988,0.26015 -1.625,0.26562 -0.133411,0.003 -0.267142,0.0566 -0.359375,0.15821 -0.09223,0.10155 -0.134374,0.2502 -0.115234,0.38867 l 0.234375,1.68945 a 0.26460996,0.26460996 0 0 0 0.283203,0.22656 c 0,0 1.35251,-0.10457 2.222656,-0.33789 0.870145,-0.23331 2.09375,-0.81836 2.09375,-0.81836 a 0.26460996,0.26460996 0 0 0 0.13086,-0.33789 l -0.642579,-1.58203 c -0.05272,-0.12976 -0.162077,-0.23569 -0.292968,-0.27734 z"
           id="path290880" />
        <path
           style="color:#000000;fill:#ff7247;stroke-width:0.795643;stroke-linecap:round;stroke-linejoin:round;stroke-miterlimit:1.5;-inkscape-stroke:none"
           d="m 105.95266,376.02734 0.50196,0.86133 c 0.0174,0.0301 0.0286,0.0633 0.0332,0.0977 l 0.27929,2.10547 c 0.0101,0.0726 -0.0104,0.14619 -0.0566,0.20312 l -0.77344,0.94141 c -0.0731,0.0892 -0.19558,0.12084 -0.30273,0.0781 l -0.30078,-0.12109 c -0.0864,-0.035 -0.14797,-0.11294 -0.16211,-0.20508 l -0.43945,-2.80664 c -9.1e-4,-0.006 -0.002,-0.013 -0.002,-0.0195 -0.034,-0.41585 0.17153,-0.81669 0.52929,-1.03125 l 0.32813,-0.19727 c 0.061,-0.0367 0.13423,-0.0473 0.20315,-0.0293 0.0683,0.0177 0.12666,0.062 0.16213,0.12302 z"
           id="path14890"
           sodipodi:nodetypes="ccccccccccccccc" />
        <path
           style="color:#000000;fill:#ffa185;stroke-width:0.795643;stroke-linecap:round;stroke-linejoin:round;stroke-miterlimit:1.5;-inkscape-stroke:none"
           d="m 106.57571,376.56055 c 0.12753,-0.0612 0.28069,-0.0113 0.34766,0.11328 l 1.10351,2.08417 c 0.17535,0.36139 0.20159,0.74898 0.0967,1.08986 l -0.82131,2.28127 c -0.13475,0.37414 -0.37531,0.70088 -0.69336,0.93945 l -0.38672,0.29101 c -0.10213,0.0766 -0.16811,0.18794 -0.18164,0.30469 l -0.0605,0.5293 c -0.0186,0.16162 -0.17728,0.26833 -0.33398,0.22461 l -3.15625,-0.87695 c -0.13678,-0.0385 -0.21869,-0.17823 -0.18555,-0.31641 l 0.19922,-0.81057 c 0.1834,-0.46765 0.48733,-0.85745 0.88086,-1.13869 l 0.79102,-0.56641 0.5332,-0.69336 c 0.12133,-0.158 0.2985,-0.26923 0.51172,-0.31445 0.12346,-0.0262 0.25891,0.0562 0.39453,0.0957 l 0.58598,-0.71893 -0.45117,-1.14257 c -0.10889,-0.22317 -0.15421,-0.45416 -0.0879,-0.66993 0.0663,-0.21576 0.23764,-0.3757 0.44531,-0.47951 z"
           id="path14894"
           sodipodi:nodetypes="ccccccccccccccccscccscc" />
        <path
           style="color:#000000;fill:#4f697d;stroke-width:0.795643;stroke-linecap:round;stroke-linejoin:round;stroke-miterlimit:1.5;-inkscape-stroke:none"
           d="m 102.29837,383.01172 c 0.13089,-0.0417 0.27356,-0.0216 0.39062,0.043 0.24289,0.13393 0.73415,0.36621 1.53906,0.58203 0.80572,0.21603 1.34799,0.26015 1.625,0.26562 0.13341,0.003 0.26715,0.0566 0.35938,0.15821 0.0922,0.10155 0.13437,0.2502 0.11523,0.38867 l -0.23437,1.68945 a 0.26460996,0.26460996 0 0 1 -0.28321,0.22656 c 0,0 -1.35251,-0.10457 -2.22265,-0.33789 -0.87015,-0.23331 -2.09375,-0.81836 -2.09375,-0.81836 a 0.26460996,0.26460996 0 0 1 -0.13086,-0.33789 l 0.64258,-1.58203 c 0.0527,-0.12976 0.16207,-0.23569 0.29297,-0.27734 z"
           id="path14898" />
      </g>
      <path
         id="path192939"
         style="color:#000000;fill:#000000;stroke:none;stroke-width:3.00716;stroke-linecap:round;stroke-linejoin:round;stroke-miterlimit:1.5;-inkscape-stroke:none"
         d="m 386.00796,384.65398 c 2.24017,-2.41157 3.84571,-5.45388 3.84571,-8.82227 0,-4.19107 -3.15641,-7.68073 -7.16211,-7.86719 1.12441,-0.83618 2.20896,-1.37304 3.07812,-1.37304 h 1.92774 c 0.7666,0 1.60429,-0.26954 2.34765,-0.87891 0.74336,-0.6093 1.33594,-1.62741 1.33594,-2.90039 0,-1.27302 -0.59258,-2.29305 -1.33594,-2.90234 -0.74336,-0.6093 -1.58105,-0.87891 -2.34765,-0.87891 h -2.69532 v -0.41992 c 0,-0.85792 -0.71555,-1.58008 -1.58007,-1.58008 h -3.5625 c -0.86983,-1.8092 -2.51446,-3.07031 -4.49805,-3.07031 l -3.33609,3.2e-4 c -0.19962,-5.7e-4 -0.39485,0.0586 -0.56055,0.16992 l -0.39648,0.26758 c -0.2216,-0.0963 -0.46424,-0.15039 -0.71875,-0.15039 -1.00591,0 -1.83008,0.83726 -1.83008,1.83789 0,1.00063 0.82412,1.8457 1.83008,1.8457 1.00591,0 1.83789,-0.84507 1.83789,-1.8457 0,-0.0124 2.5e-4,-0.0248 0,-0.0371 l 0.14062,-0.0957 h 3.03321 c 1.65874,0 3.16797,1.70743 3.16797,4.07618 0,2.3687 -1.50923,4.07422 -3.16797,4.07422 h -2.9668 l -0.22461,-0.19336 c 0.0114,-0.0817 0.0176,-0.16573 0.0176,-0.25 0,-1.00067 -0.83193,-1.83789 -1.83789,-1.83789 -1.00585,0 -1.83008,0.83726 -1.83008,1.83789 0,1.00063 0.82412,1.8457 1.83008,1.8457 0.17941,0 0.35295,-0.0283 0.51758,-0.0781 l 0.5,0.43165 c 0.18269,0.15824 0.41651,0.24497 0.6582,0.24414 h 3.33594 c 1.9813,0 3.62353,-1.26228 4.49414,-3.07032 h 3.56641 c 0.86434,0 1.58007,-0.7299 1.58007,-1.58789 v -0.41211 h 2.69532 c 0.22148,0 0.72678,0.13181 1.07812,0.41992 0.3515,0.288 0.60547,0.65922 0.60547,1.35938 0,0.70012 -0.25412,1.06942 -0.60547,1.35742 -0.3515,0.288 -0.85676,0.41992 -1.07812,0.41992 h -1.92774 c -1.82385,0 -3.40917,1.04362 -4.8418,2.20704 -1.23634,1.00404 -2.20299,1.9515 -3.18166,2.81445 -1.24894,-1.03121 -2.88442,-1.6543 -4.59863,-1.6543 -4.1653,0 -7.50686,3.5689 -7.50686,7.87695 0,3.37561 1.61937,6.42177 3.86719,8.83594 2.24783,2.41418 5.13556,4.23516 7.91407,5.18946 0.20836,0.0707 0.43421,0.0707 0.66512,-0.008 2.79589,-0.96774 5.68082,-2.78585 7.92098,-5.19745 z m -3.00601,-25.62273 v 2.00195 h -2.54492 c 0.0467,-0.3286 0.0723,-0.66314 0.0723,-1.0039 0,-0.33801 -0.0243,-0.67212 -0.0703,-0.99805 z m -26.92383,3.1582 c -0.0662,0.004 -0.13216,0.0143 -0.19726,0.0312 -0.25807,0.0673 -0.47921,0.23452 -0.61328,0.46485 l -1.43164,2.45898 -0.92188,-0.44336 c -0.48202,-0.23131 -1.06135,-0.0431 -1.31445,0.42774 l -4.16406,7.86328 c -0.67015,1.381 -0.63663,2.80238 -0.37305,4.13281 l 3.10547,8.62305 c 0.50928,1.41407 1.41706,2.6491 2.61914,3.55078 l 1.46289,1.09961 c 0.38602,0.28951 0.63442,0.71108 0.68555,1.15234 l 0.11523,1.00391 c -0.28831,0.0976 -0.55428,0.26346 -0.76367,0.49414 -0.34859,0.38381 -0.50789,0.9454 -0.43555,1.46875 l 0.88477,6.38476 c 0.0747,0.52315 0.54356,0.89788 1.07031,0.85547 0,0 5.11165,-0.3955 8.40039,-1.27734 3.28874,-0.8818 7.91406,-3.0918 7.91406,-3.0918 0.47615,-0.22851 0.69254,-0.78788 0.49414,-1.27734 l -2.42773,-5.97852 c -0.19926,-0.49043 -0.61272,-0.89141 -1.10742,-1.04883 -0.077,-0.0245 -0.15576,-0.0432 -0.23438,-0.0566 l -0.54101,-2.20312 c -0.52274,-1.78216 -1.84273,-3.23978 -3.33008,-4.30274 l -2.90039,-2.07812 1.19922,-9.47461 c 0.19324,-1.96059 -1.10884,-3.7568 -3.01563,-4.18555 l -0.35742,-0.0801 c 0.0158,-1.4918 -0.74627,-2.86608 -2.01172,-3.625 l -1.24023,-0.74609 c -0.17294,-0.10403 -0.37182,-0.15351 -0.57032,-0.14258 z m 37.5625,18.25788 -2.90234,2.07421 c -1.48732,1.06296 -2.84844,2.53524 -3.32617,4.30274 l -0.53906,2.20312 c -0.078,0.0134 -0.15605,0.0324 -0.23243,0.0566 -0.4947,0.15723 -0.91398,0.55855 -1.11328,1.04883 l -2.42968,5.97852 c -0.19732,0.49152 0.0228,1.05165 0.50195,1.27734 0,0 4.62531,2.21 7.91406,3.0918 3.28876,0.88184 8.40039,1.27734 8.40039,1.27734 0.52676,0.0424 0.9956,-0.33232 1.07032,-0.85547 l 0.88476,-6.38476 c 0.0722,-0.52335 -0.093,-1.08689 -0.44141,-1.4707 -0.21015,-0.2315 -0.47612,-0.39466 -0.76367,-0.49219 l 0.11914,-1.00586 c 0.051,-0.4413 0.30146,-0.86084 0.6875,-1.15039 l 1.46094,-1.09961 c 1.20212,-0.90168 2.11184,-2.13671 2.62109,-3.55078 l 3.09961,-8.62305 c 0.26722,-1.33039 0.29354,-2.75376 -0.37695,-4.13477 l -4.15625,-7.86132 c -0.25323,-0.4752 -0.83744,-0.66434 -1.32031,-0.42774 l -0.91797,0.44336 -1.42774,-2.45898 c -0.13568,-0.23207 -0.35018,-0.4341 -0.74219,-0.48049 -0.27793,-0.0524 -0.48151,0.0327 -0.63866,0.12695 l -1.24024,0.74609 c -1.26543,0.75892 -2.03372,2.1332 -2.01562,3.625 l -0.35352,0.0801 c -1.90677,0.42875 -3.20896,2.22445 -3.01953,4.18557 z m -39.31255,-6.22467 1.70704,-4.32422 c 0.41156,-0.84348 0.58267,-1.71574 0.33203,-2.53125 -0.14711,-0.47866 -0.43071,-0.88376 -0.79883,-1.2168 l 0.91802,-1.57422 0.37695,0.22071 c 0.70074,0.42024 1.09707,1.1928 1.0332,2.01171 l -1.55078,9.88086 z m 43.49005,-7.41417 c -0.0639,-0.81891 0.34033,-1.59147 1.04102,-2.01171 l 0.36938,-0.22061 0.91992,1.57227 c -0.36978,0.33315 -0.65555,0.73986 -0.80274,1.21875 -0.25058,0.81547 -0.0724,1.68747 0.32032,2.49414 l 1.7246,4.36328 -2.01867,2.46284 z m -46.23413,8.9142 c -0.20424,0.51371 0.0485,1.09721 0.5625,1.30078 0.5137,0.20409 1.09528,-0.0487 1.29883,-0.5625 l 0.043,-0.10742 1.3125,1.5996 c -0.31579,0.51577 -0.46335,1.09441 -0.47656,1.63086 -0.0204,0.82474 0.21711,1.57895 0.65625,2.17774 l 2.80469,3.83008 c 0.48879,0.70529 0.66612,1.44062 0.94531,2.27343 0.17669,0.52445 0.74559,0.80516 1.26953,0.62696 0.5206,-0.17688 0.80036,-0.74 0.62695,-1.26172 -0.25689,-1.01087 -0.74972,-2.03153 -1.22461,-2.82617 l -2.8125,-3.82422 c -0.13802,-0.18822 -0.28224,-0.59483 -0.27343,-0.95313 0.009,-0.3583 0.11647,-0.6418 0.41992,-0.89257 0.29862,-0.24681 0.55996,-0.27469 0.8789,-0.20704 0.31896,0.0677 0.64745,0.29455 0.76758,0.45118 l 2.10352,2.73828 c 0.0607,0.0794 0.13358,0.1492 0.21484,0.20703 l 3.11524,2.22851 c 1.16908,0.83551 2.20971,2.00049 2.59765,3.32227 l 0.51563,2.11914 c -1.04312,0.50974 -2.71345,1.20024 -5.14258,1.85156 -2.02288,0.54238 -3.60395,0.79747 -4.74609,0.91407 l -0.11914,-1.04493 c -0.11902,-1.0272 -0.68053,-1.92049 -1.47657,-2.51757 l -1.45312,-1.0918 c -0.88975,-0.66739 -1.56432,-1.58187 -1.94141,-2.62891 l -3.04297,-8.42969 c -0.19445,-1.01151 -0.19309,-1.90493 0.22266,-2.76171 l 3.68355,-6.96878 0.90039,0.43554 c 0.44529,0.22677 0.58751,0.42628 0.64258,0.60547 0.0561,0.18255 0.008,0.46241 -0.23339,1.1006 z m 51.21484,-8.80667 3.6914,6.96875 c 0.41356,0.8522 0.41195,1.74115 0.22071,2.74609 l -3.04102,8.44531 c -0.37719,1.04708 -1.05167,1.95957 -1.9414,2.62695 l -1.4629,1.09376 c -0.79608,0.59712 -1.34973,1.48846 -1.46874,2.51562 l -0.12305,1.04883 c -1.1399,-0.11664 -2.7177,-0.37375 -4.74024,-0.91602 -2.42912,-0.65132 -4.09944,-1.34182 -5.14257,-1.85156 l 0.52148,-2.12695 c 0.53117,-1.32998 1.42683,-2.4819 2.5918,-3.31446 l 3.11523,-2.22851 c 0.0786,-0.0586 0.1465,-0.12842 0.20508,-0.20703 l 2.10547,-2.73828 c 0.12019,-0.15648 0.44862,-0.38352 0.76758,-0.45118 0.31899,-0.0676 0.58618,-0.0398 0.88476,0.20704 0.3035,0.25058 0.40522,0.5342 0.41406,0.89257 0.008,0.3583 -0.1351,0.76491 -0.27343,0.95313 l -2.80469,3.82422 c -0.34054,0.46465 -0.60775,0.98071 -0.79102,1.52734 l -0.43554,1.29883 c -0.17348,0.52172 0.10842,1.0869 0.6289,1.26367 0.52396,0.17839 1.09284,-0.10423 1.26953,-0.62891 l 0.43555,-1.29882 c 0.11754,-0.35074 0.28342,-0.67633 0.50195,-0.97461 l 2.8125,-3.83008 c 0.43903,-0.59879 0.67659,-1.353 0.65625,-2.17774 -0.0123,-0.53722 -0.16143,-1.11645 -0.47851,-1.63281 l 1.3125,-1.60156 0.0449,0.11133 c 0.20372,0.51398 0.78512,0.76479 1.29883,0.56054 0.51398,-0.20371 0.76479,-0.78515 0.56055,-1.29882 l -2.64258,-6.66602 c -0.28989,-0.6 -0.29227,-0.91713 -0.23633,-1.09961 0.0552,-0.17915 0.20358,-0.37871 0.65625,-0.60937 z m -43.17578,1.77148 0.19922,0.0449 c 0.93718,0.2109 1.55615,1.07164 1.46289,2.0293 l -0.94532,7.47851 -0.36914,-0.48046 c -0.39227,-0.51085 -0.9394,-0.89301 -1.59375,-1.09961 z m 36.4707,0.002 1.24414,7.97461 c -0.65146,0.20705 -1.1969,0.58655 -1.58789,1.09571 l -0.37109,0.48242 -0.94922,-7.48347 c -0.0896,-0.9579 0.53381,-1.81618 1.46875,-2.02644 z m -13.74005,1.26772 c 3.02229,0 5.5,2.59194 5.5,5.87695 0,2.72682 -1.31993,5.31575 -3.31446,7.4629 -1.64394,1.76972 -3.7402,3.15086 -5.78906,4.05859 V 385.0041 L 379.40039,385 c 0.54958,-0.002 0.99413,-0.44651 0.99609,-0.99609 l 0.004,-0.78125 c 1.54861,-0.93373 2.532,-2.6176 2.54297,-4.45118 0.0151,-2.85343 -2.32077,-5.18252 -5.17578,-5.16796 -2.85525,0.0151 -5.19637,2.35138 -5.21094,5.20507 -0.008,1.82694 0.95274,3.5002 2.48828,4.42383 l -0.008,0.7793 c -0.002,0.55827 0.45349,1.01018 1.01172,1.0039 l 0.70117,-0.004 v 2.3418 c -2.0443,-0.90438 -4.13743,-2.27764 -5.7793,-4.04102 -2.00162,-2.14972 -3.32812,-4.74584 -3.32812,-7.47852 0,-3.2843 2.48251,-5.87583 5.50495,-5.87688 1.5114,6.4e-4 3.05526,0.4449 4.05767,1.50399 0.36375,0.37697 0.95676,0.40933 1.36237,0.0782 1.08977,-1.04698 2.44219,-1.56569 3.78623,-1.58194 z m -5.30322,12.72653 c 0.0201,-0.41658 -0.22041,-0.80191 -0.60351,-0.96679 -1.15831,-0.50022 -1.8961,-1.63187 -1.89063,-2.90039 0.009,-1.7717 1.44365,-3.2042 3.21875,-3.21289 l 2.8e-4,-1.4e-4 c 1.77534,-0.008 3.17662,1.3882 3.16797,3.16015 -0.008,1.26868 -0.77174,2.4219 -1.94336,2.9375 -0.36477,0.16489 -0.59606,0.53142 -0.58789,0.93164 V 383 l -1.36161,0.008 z m 0.62919,-4.87904 c -0.55229,-0.002 -1.00176,0.4438 -1.00391,0.99609 -0.002,0.55534 0.44857,1.00609 1.00391,1.00391 h 0.13281 c 0.55534,0.002 1.00609,-0.44857 1.00391,-1.00391 -0.002,-0.55229 -0.45162,-0.99825 -1.00391,-0.99609 z m 9.63281,13.25 c 1.08261,0.58798 2.99586,1.49237 6.10547,2.32617 3.11289,0.83463 5.21267,1.0069 6.44336,1.03906 l -0.71485,5.20508 c -0.9609,-0.0884 -4.53422,-0.38553 -7.11718,-1.07812 -2.5849,-0.69306 -5.82856,-2.22467 -6.70118,-2.62696 z m -18.9043,0.008 1.97852,4.86328 c -0.87901,0.40513 -4.12138,1.92887 -6.70313,2.6211 -2.58266,0.69252 -6.14777,0.98941 -7.10937,1.07812 l -0.72266,-5.20508 c 1.23066,-0.034 3.33821,-0.20458 6.45117,-1.03906 3.10839,-0.83346 5.02259,-1.73038 6.10547,-2.31836 z"
         transform="matrix(0.26458334,0,0,0.26458334,0,280.06666)"
         sodipodi:nodetypes="sscsssssscsscccccssssccsssccsssscccscsscscsssssccssccscccsccsccccccccccccccccscccsccccccccssscsccccccscccsccccccccccccccccccccsccccccccccscccccccccsccccccccssccccccscccccccccsccccccccccsccccccsccccscccccccccccccccccscccccccccccccscccccccccccccssccccccscccccccccsscscccsccsccccscccccs" />
    </g>
  </g>
</svg>
